<svg
                width="15"
                height="14"
                viewBox="0 0 15 14"
                fill="none"
                xmlns="http://www.w3.org/2000/svg"
              >
                <path
                  d="M7.67308 2.78616C8.92728 2.78616 9.77331 3.32791 10.2557 3.78061L12.1407 1.94013C10.983 0.864046 9.47645 0.203552 7.67308 0.203552C5.06079 0.203552 2.80472 1.70265 1.70638 3.88451L3.86597 5.56172C4.40772 3.9513 5.90682 2.78616 7.67308 2.78616Z"
                  fill="#EA4335"
                ></path>
                <path
                  d="M14.0854 7.03116C14.0854 6.48199 14.0409 6.08124 13.9444 5.66565H7.67346V8.14436H11.3544C11.2802 8.76032 10.8795 9.68798 9.9889 10.3114L12.0965 11.9441C13.3582 10.7789 14.0854 9.06459 14.0854 7.03116Z"
                  fill="#4285F4"
                ></path>
                <path
                  d="M3.87323 8.20371C3.73223 7.78811 3.65059 7.34284 3.65059 6.88272C3.65059 6.4226 3.73223 5.97732 3.86581 5.56173L1.70622 3.88452C1.25352 4.78992 0.993774 5.80663 0.993774 6.88272C0.993774 7.9588 1.25352 8.97552 1.70622 9.88092L3.87323 8.20371Z"
                  fill="#FBBC05"
                ></path>
                <path
                  d="M7.67328 13.5617C9.47665 13.5617 10.9906 12.968 12.0964 11.9439L9.98872 10.3112C9.4247 10.7045 8.66773 10.9791 7.67328 10.9791C5.90701 10.9791 4.40791 9.81397 3.87358 8.20355L1.71399 9.88076C2.81234 12.0626 5.06099 13.5617 7.67328 13.5617Z"
                  fill="#34A853"
                ></path>
              </svg>